<svg width="170" height="43" viewBox="0 0 170 43" fill="none" xmlns="http://www.w3.org/2000/svg">
<path fill-rule="evenodd" clip-rule="evenodd" d="M12.8995 0.878679C11.7279 -0.292894 9.82843 -0.292894 8.65685 0.878679L0.87868 8.65685C-0.292893 9.82843 -0.292895 11.7279 0.878678 12.8995L7.15686 19.1777C8.32843 20.3492 8.32843 22.2487 7.15686 23.4203L0.878682 29.6985C-0.292891 30.8701 -0.292891 32.7696 0.878682 33.9411L8.65686 41.7193C9.82843 42.8909 11.7279 42.8909 12.8995 41.7193L18.2782 36.3406C19.4497 35.1691 21.3492 35.1691 22.5208 36.3406L27.8995 41.7193C29.071 42.8909 30.9705 42.8909 32.1421 41.7193L39.9203 33.9411C41.0919 32.7696 41.0919 30.8701 39.9203 29.6985L33.6421 23.4203C32.4705 22.2487 32.4705 20.3492 33.6421 19.1777L39.9203 12.8995C41.0919 11.7279 41.0919 9.82843 39.9203 8.65685L32.1421 0.878679C30.9705 -0.292894 29.071 -0.292894 27.8995 0.878679L22.5208 6.25735C21.3492 7.42892 19.4497 7.42892 18.2782 6.25735L12.8995 0.878679ZM22.5208 27.299C21.3492 28.4706 19.4497 28.4706 18.2782 27.299L14.3995 23.4203C13.2279 22.2487 13.2279 20.3492 14.3995 19.1777L18.2782 15.299C19.4497 14.1274 21.3492 14.1274 22.5208 15.299L26.3995 19.1777C27.571 20.3492 27.571 22.2487 26.3995 23.4203L22.5208 27.299ZM140.072 32V14.821H130.806V12.074H143.434V32H140.072ZM141.384 7.892C140.619 7.892 139.976 7.65967 139.457 7.195C138.938 6.703 138.678 6.06067 138.678 5.268C138.678 4.47533 138.938 3.84666 139.457 3.382C139.976 2.89 140.619 2.644 141.384 2.644C142.149 2.644 142.792 2.89 143.311 3.382C143.83 3.84666 144.09 4.47533 144.09 5.268C144.09 6.06067 143.83 6.703 143.311 7.195C142.792 7.65967 142.149 7.892 141.384 7.892ZM70.092 2.808V32H73.454V18.101C74.6293 16.8983 75.6817 15.9963 76.611 15.395C77.5403 14.7937 78.5927 14.493 79.768 14.493C81.408 14.493 82.5834 14.9577 83.294 15.887C84.0047 16.789 84.36 18.183 84.36 20.069V32H87.722V19.618C87.722 16.994 87.1617 14.9987 86.041 13.632C84.9203 12.2653 83.1847 11.582 80.834 11.582C79.276 11.582 77.8957 11.9647 76.693 12.73C75.4903 13.468 74.3833 14.3837 73.372 15.477H73.249L73.454 10.762V2.808H70.092ZM54.569 31.262C56.2364 32.082 58.1087 32.492 60.186 32.492C61.662 32.492 63.0697 32.2187 64.409 31.672C65.7757 31.1253 67.0057 30.36 68.099 29.376L66.582 27.203C65.762 27.8863 64.8327 28.474 63.794 28.966C62.7827 29.458 61.662 29.704 60.432 29.704C58.9014 29.704 57.5484 29.3897 56.373 28.761C55.225 28.105 54.3367 27.203 53.708 26.055C53.0794 24.907 52.765 23.5813 52.765 22.078C52.765 20.5473 53.0794 19.208 53.708 18.06C54.364 16.8847 55.2797 15.9827 56.455 15.354C57.6304 14.698 58.9834 14.37 60.514 14.37C61.58 14.37 62.5504 14.575 63.425 14.985C64.2997 15.395 65.147 15.9553 65.967 16.666L67.648 14.493C66.828 13.7003 65.8167 13.017 64.614 12.443C63.4387 11.869 62.031 11.582 60.391 11.582C58.3684 11.582 56.5097 11.992 54.815 12.812C53.1477 13.632 51.8084 14.821 50.797 16.379C49.7857 17.937 49.28 19.8367 49.28 22.078C49.28 24.2647 49.7447 26.137 50.674 27.695C51.6307 29.253 52.929 30.442 54.569 31.262ZM96.644 32.492C95.414 32.492 94.2797 32.2733 93.241 31.836C92.2023 31.3713 91.3823 30.7153 90.781 29.868C90.1797 29.0207 89.879 28.0093 89.879 26.834C89.879 24.5927 90.9997 22.898 93.241 21.75C95.4823 20.5747 99.1723 19.782 104.311 19.372C104.284 18.47 104.092 17.6363 103.737 16.871C103.409 16.1057 102.862 15.5043 102.097 15.067C101.332 14.6023 100.307 14.37 99.022 14.37C98.1747 14.37 97.3273 14.493 96.48 14.739C95.66 14.9577 94.8673 15.2583 94.102 15.641C93.364 15.9963 92.6807 16.3653 92.052 16.748L90.74 14.452C91.396 14.0147 92.1887 13.5773 93.118 13.14C94.0747 12.6753 95.0997 12.3063 96.193 12.033C97.2863 11.7323 98.4207 11.582 99.596 11.582C101.427 11.582 102.931 11.9237 104.106 12.607C105.309 13.2903 106.197 14.247 106.771 15.477C107.372 16.6797 107.673 18.1147 107.673 19.782V32H104.926L104.639 29.294H104.516C103.423 30.1687 102.193 30.9203 100.826 31.549C99.4593 32.1777 98.0653 32.492 96.644 32.492ZM97.546 29.786C98.694 29.786 99.8283 29.5263 100.949 29.007C102.07 28.4877 103.19 27.7633 104.311 26.834V21.586C101.468 21.832 99.227 22.1737 97.587 22.611C95.9743 23.0483 94.8263 23.6087 94.143 24.292C93.487 24.948 93.159 25.7133 93.159 26.588C93.159 27.326 93.364 27.941 93.774 28.433C94.184 28.8977 94.717 29.2393 95.373 29.458C96.0563 29.6767 96.7807 29.786 97.546 29.786ZM118.399 31.467C119.52 32.1503 121.05 32.492 122.991 32.492C124.248 32.492 125.369 32.369 126.353 32.123C127.364 31.9043 128.321 31.631 129.223 31.303L128.485 28.843C127.774 29.1163 127.036 29.335 126.271 29.499C125.506 29.663 124.645 29.745 123.688 29.745C122.403 29.745 121.392 29.54 120.654 29.13C119.916 28.72 119.397 28.105 119.096 27.285C118.795 26.465 118.645 25.4673 118.645 24.292V14.821H128.444V12.074H118.645V5.678H115.857L115.406 12.074L109.666 12.279V14.821H115.283V24.251C115.283 25.891 115.515 27.326 115.98 28.556C116.472 29.786 117.278 30.7563 118.399 31.467ZM154.324 12.074H150.593L157.604 21.668L150.019 32H153.627L156.907 27.408C157.317 26.7793 157.727 26.1643 158.137 25.563C158.547 24.9617 158.957 24.374 159.367 23.8H159.531C159.968 24.374 160.406 24.9753 160.843 25.604C161.308 26.2327 161.745 26.834 162.155 27.408L165.64 32H169.33L161.704 21.955L168.797 12.074H165.23L162.237 16.379C161.882 16.9257 161.499 17.4997 161.089 18.101C160.706 18.675 160.337 19.249 159.982 19.823H159.818C159.435 19.249 159.039 18.675 158.629 18.101C158.219 17.527 157.836 16.9803 157.481 16.461L154.324 12.074Z" fill="url(#paint0_linear_202_46)"/>
<defs>
<linearGradient id="paint0_linear_202_46" x1="84.665" y1="0" x2="84.665" y2="42.598" gradientUnits="userSpaceOnUse">
<stop stop-color="#42FFDD"/>
<stop offset="1" stop-color="#36DBFF"/>
</linearGradient>
</defs>
</svg>
